<svg xmlns="http://www.w3.org/2000/svg" width="256" height="256" fill="none">
  <style>
    #bg-circle { fill: #000; }
    #yg { fill: #fff; }
    @media (prefers-color-scheme: dark) {
      #bg-circle { fill: #fff; }
      #yg { fill: #000; }
    }
  </style>
  <circle id="bg-circle" cx="128" cy="128" r="128" />
  <path id="yg" d="M77.58 136.91a112.9 112.9 0 0 0-2.05 12.03c-.51 5.12-1.03 10.59-1.54 16.39-.34 5.63-.68 11.1-1.02 16.38-.17 5.3-.26 9.39-.26 12.29 0 4.95-2.73 7.42-8.19 7.42a10.3 10.3 0 0 1-5.38-1.53c-1.53-1.03-2.3-2.99-2.3-5.89 0-7.17.26-14.93.77-23.3.51-8.36 1.2-16.98 2.05-25.85a990.95 990.95 0 0 1-16.9-32.26A481.96 481.96 0 0 1 29.7 83.41a40.9 40.9 0 0 1-1.79-4.87 28.85 28.85 0 0 1-.51-5.12 8.6 8.6 0 0 1 1.28-3.84c.68-1.2 1.88-1.96 3.58-2.3 1.88-.17 3.67 0 5.38.51 1.88.34 3.5 1.45 4.86 3.33 1.37 3.58 3.08 7.68 5.12 12.29 2.05 4.6 4.19 9.3 6.4 14.08a528.8 528.8 0 0 0 6.66 13.82c2.22 4.27 4.18 7.94 5.89 11.01a491.93 491.93 0 0 0 21.76-31.49c7-10.75 13.48-20.99 19.45-30.72 2.22-3.41 4.53-5.29 6.92-5.63 2.38-.34 4.35.17 5.88 1.54 1.37 1.02 2.14 2.73 2.3 5.12.35 2.39.1 4.52-.76 6.4a376.14 376.14 0 0 1-10.24 16.9 808.48 808.48 0 0 1-11.78 18.17 1681.5 1681.5 0 0 1-22.52 34.3Zm90.58-10.49c-.86 0-1.97-.09-3.33-.26a30 30 0 0 1-3.59-1.28 18.44 18.44 0 0 1-2.81-2.3 4.81 4.81 0 0 1-1.28-3.08c0-1.36.77-2.98 2.3-4.86 1.7-2.05 4.44-3.58 8.2-4.6a81.73 81.73 0 0 1 16.12-2.06c5.63-.34 11.27-.34 16.9 0 5.63.17 11.18.52 16.64 1.03 5.46.34 10.58.6 15.36.77 2.73 0 4.52.5 5.37 1.53a5.43 5.43 0 0 1 1.28 3.59c0 3.07-1.36 5.46-4.1 7.16-2.72 1.71-5.45 2.48-8.18 2.3-2.9-.16-5.98-.25-9.22-.25h-9.73c0 4.78.17 10.16.51 16.13.52 5.8 1.03 11.7 1.54 17.66.51 5.98 1.02 11.7 1.54 17.16.68 5.46 1.28 10.06 1.79 13.82a4.1 4.1 0 0 1-1.03 3.84c-.85 1.02-2.22 1.54-4.1 1.54-3.58 0-6.22-2.22-7.93-6.66-3.24-8.36-5.54-17.92-6.91-28.67-9.22 5.63-18.26 9.13-27.14 10.5-8.87 1.36-16.9 1.1-24.06-.77-7-2.05-12.72-5.47-17.15-10.24-4.27-4.95-6.4-10.93-6.4-17.92 0-6.66 1.2-13.83 3.58-21.5a96.92 96.92 0 0 1 10.24-22.28 101.46 101.46 0 0 1 15.62-19.46 64 64 0 0 1 20.48-13.56c2.56-.69 4.95-.77 7.17-.26a14.1 14.1 0 0 1 6.4 2.56 19.79 19.79 0 0 1 5.37 4.6 38.6 38.6 0 0 1 4.35 5.13 8.31 8.31 0 0 1 1.54 3.84c.17 1.36-.34 2.64-1.54 3.84-2.56 1.88-4.78 1.7-6.65-.51-2.9-3.59-5.38-5.72-7.43-6.4-1.87-.86-4.52-.17-7.93 2.04-3.41 2.4-7.17 6.06-11.27 11.01a118 118 0 0 0-11.52 16.13 91.34 91.34 0 0 0-8.19 18.18c-2.05 6.14-2.73 11.86-2.05 17.15.52 4.6 3.08 7.93 7.68 9.98 4.61 1.88 9.82 2.73 15.62 2.56a57.76 57.76 0 0 0 17.66-3.33c5.98-2.04 10.59-4.78 13.83-8.19l-.51-8.7a161.3 161.3 0 0 1-.26-8.96l-11.26 1.02c-3.76.17-7.6.51-11.52 1.03Z"/>
</svg>